<?xml version="1.0" encoding="iso-8859-1"?>
<!-- Generator: Adobe Illustrator 19.0.0, SVG Export Plug-In . SVG Version: 6.00 Build 0)  -->
<svg xmlns="http://www.w3.org/2000/svg" xmlns:xlink="http://www.w3.org/1999/xlink" version="1.1" id="Capa_1" x="0px" y="0px" viewBox="0 0 512 512" style="enable-background:new 0 0 512 512;" xml:space="preserve" width="512px" height="512px">
<g>
	<g>
		<path d="M72.3,110.333v291.335h367.399V110.333H72.3z M256,319.199c-34.848,0-63.2-28.351-63.2-63.198    c0-34.849,28.351-63.2,63.2-63.2s63.2,28.352,63.2,63.2C319.2,290.849,290.848,319.199,256,319.199z" fill="#FFFFFF"/>
	</g>
</g>
<g>
	<g>
		<path d="M452.367,5.49c-2.849-3.476-7.105-5.49-11.6-5.49H71.233c-4.494,0-8.751,2.015-11.601,5.49    c-2.849,3.476-3.989,8.045-3.108,12.451l12.479,62.392h373.994l12.479-62.391C456.357,13.535,455.216,8.965,452.367,5.49z" fill="#FFFFFF"/>
	</g>
</g>
<g>
	<g>
		<path d="M455.475,494.058l-12.478-62.39H69.003l-12.479,62.391c-0.881,4.406,0.26,8.976,3.108,12.451    c2.85,3.476,7.106,5.49,11.601,5.49h369.533c4.494,0,8.751-2.015,11.6-5.49C455.216,503.034,456.356,498.465,455.475,494.058z" fill="#FFFFFF"/>
	</g>
</g>
<g>
</g>
<g>
</g>
<g>
</g>
<g>
</g>
<g>
</g>
<g>
</g>
<g>
</g>
<g>
</g>
<g>
</g>
<g>
</g>
<g>
</g>
<g>
</g>
<g>
</g>
<g>
</g>
<g>
</g>
</svg>
