<?xml version="1.0"?>
<svg xmlns="http://www.w3.org/2000/svg" viewBox="-161 0 512 512.00003" width="512px" height="512px"><path d="m40.015625 104.84375h110.042969v30.011719h-110.042969zm0 0" fill="#FFFFFF"/><path d="m190.074219 366.589844v-71.316406c0-26.816407-10.445313-52.03125-29.40625-70.992188-13.292969-13.292969-20.613281-30.964844-20.613281-49.765625v-9.648437h-90.035157v9.648437c0 18.800781-7.320312 36.472656-20.613281 49.765625-18.964844 18.960938-29.40625 44.175781-29.40625 70.992188v71.316406c0 8.488281 1.359375 16.875 4.046875 24.929687 3.316406 9.957031 3.316406 20.921875 0 30.878907-2.6875 8.054687-4.046875 16.441406-4.046875 24.929687v19.65625c0 24.820313 20.195312 45.015625 45.015625 45.015625h100.039063c24.824218 0 45.019531-20.195312 45.019531-45.015625v-19.65625c0-8.488281-1.363281-16.875-4.046875-24.929687-3.320313-9.957032-3.320313-20.921876 0-30.878907 2.683594-8.054687 4.046875-16.441406 4.046875-24.929687zm0 0" fill="#FFFFFF"/><path d="m165.429688 13.613281-26.746094-13.613281-38.082032 74.832031h33.671876zm0 0" fill="#FFFFFF"/></svg>
